# xmcd CD database file
# Copyright (C) 1997 Ti Kan
#
# Track frame offsets:
#  150
#  9017
#  36155
#  57630
#  75127
#  98780
#  114650
#  129410
#  157900
#  178787
#  194675
#  209930
#
# Disc length: 2992 seconds
#
# Revision: 1
# Processed by: cddbd v1.4b41PL1 Copyright (c) Steve Scherf et al.
# Submitted via: CDWizzard Release:4.30
#
DISCID=9d0bae0c
DTITLE=Ian Matthews - Walking A Changing Line
DYEAR=1900
DGENRE=
TTITLE0=Dream Sequence
TTITLE1=Standing Still
TTITLE2=Except for a Tear
TTITLE3=Following Every Finger
TTITLE4=Alive Alone
TTITLE5=Smell of Home
TTITLE6=On Squirrel Hill
TTITLE7=Shadows Break
TTITLE8=This Fabrication
TTITLE9=Lovers by Rote
TTITLE10=Only a Motion
TTITLE11=Why Fight
EXTD=
EXTT0=
EXTT1=
EXTT2=
EXTT3=
EXTT4=
EXTT5=
EXTT6=
EXTT7=
EXTT8=
EXTT9=
EXTT10=
EXTT11=
PLAYORDER=
